<?xml version="1.0" encoding="UTF-8"?>
<svg xmlns="http://www.w3.org/2000/svg" width="1024" height="512" viewBox="0 0 1024 512">
  <defs>
    <clipPath id="pepperClip">
      <path d="M 200.00 256.00 L 200.87 254.26 L 201.75 252.14 L 202.67 249.71 L 203.64 246.98 L 204.67 244.00 L 205.78 240.81 L 206.98 237.46 L 208.30 233.96 L 209.75 230.38 L 211.34 226.73 L 213.09 223.07 L 215.02 219.43 L 217.14 215.86 L 219.47 212.38 L 222.03 209.04 L 224.82 205.88 L 227.88 202.93 L 231.20 200.24 L 234.79 197.70 L 238.60 195.21 L 242.65 192.75 L 246.91 190.33 L 251.38 187.97 L 256.04 185.66 L 260.91 183.42 L 265.95 181.23 L 271.18 179.12 L 276.57 177.09 L 282.12 175.14 L 287.82 173.27 L 293.67 171.50 L 299.66 169.82 L 305.77 168.24 L 312.00 166.77 L 318.35 165.40 L 324.80 164.16 L 331.42 163.03 L 338.26 161.99 L 345.31 161.05 L 352.55 160.21 L 359.97 159.47 L 367.56 158.81 L 375.28 158.25 L 383.13 157.78 L 391.10 157.40 L 399.16 157.10 L 407.30 156.88 L 415.51 156.75 L 423.77 156.70 L 432.05 156.73 L 440.36 156.83 L 448.66 157.02 L 456.95 157.27 L 465.20 157.60 L 473.53 158.02 L 482.02 158.56 L 490.66 159.21 L 499.42 159.96 L 508.27 160.80 L 517.20 161.73 L 526.18 162.74 L 535.18 163.83 L 544.17 164.98 L 553.15 166.19 L 562.08 167.46 L 570.93 168.78 L 579.69 170.13 L 588.33 171.52 L 596.83 172.94 L 605.15 174.37 L 613.28 175.82 L 621.20 177.28 L 628.97 178.77 L 636.69 180.31 L 644.35 181.91 L 651.93 183.56 L 659.43 185.26 L 666.84 187.00 L 674.16 188.78 L 681.37 190.60 L 688.48 192.45 L 695.46 194.33 L 702.31 196.24 L 709.02 198.17 L 715.59 200.13 L 722.01 202.10 L 728.27 204.08 L 734.36 206.08 L 740.27 208.08 L 746.00 210.08 L 751.63 212.09 L 757.23 214.13 L 762.79 216.18 L 768.28 218.26 L 773.67 220.36 L 778.93 222.47 L 784.06 224.61 L 789.01 226.76 L 793.78 228.94 L 798.32 231.14 L 802.63 233.35 L 806.67 235.59 L 810.42 237.85 L 813.86 240.13 L 816.96 242.42 L 819.70 244.74 L 822.05 247.08 L 824.00 249.44 L 825.54 251.84 L 826.72 254.29 L 827.54 256.79 L 828.02 259.33 L 828.19 261.90 L 828.04 264.50 L 827.61 267.12 L 826.91 269.76 L 825.95 272.40 L 824.75 275.04 L 823.32 277.68 L 821.69 280.30 L 819.86 282.90 L 817.86 285.47 L 815.69 288.01 L 813.39 290.51 L 810.95 292.96 L 808.40 295.36 L 805.70 297.74 L 802.81 300.13 L 799.73 302.53 L 796.46 304.93 L 792.99 307.32 L 789.33 309.69 L 785.48 312.05 L 781.44 314.38 L 777.20 316.68 L 772.77 318.94 L 768.15 321.15 L 763.33 323.30 L 758.33 325.40 L 753.13 327.42 L 747.73 329.37 L 742.15 331.25 L 736.37 333.03 L 730.40 334.72 L 724.17 336.34 L 717.62 337.91 L 710.79 339.44 L 703.69 340.92 L 696.36 342.34 L 688.80 343.71 L 681.05 345.01 L 673.14 346.26 L 665.07 347.43 L 656.89 348.53 L 648.62 349.56 L 640.27 350.51 L 631.87 351.38 L 623.45 352.17 L 615.02 352.87 L 606.63 353.47 L 598.28 353.99 L 590.00 354.40 L 581.70 354.71 L 573.27 354.93 L 564.72 355.05 L 556.08 355.08 L 547.36 355.03 L 538.58 354.89 L 529.75 354.66 L 520.88 354.36 L 512.00 353.99 L 503.12 353.55 L 494.25 353.03 L 485.42 352.46 L 476.64 351.82 L 467.92 351.12 L 459.28 350.38 L 450.73 349.58 L 442.30 348.73 L 434.00 347.84 L 425.70 346.88 L 417.29 345.82 L 408.79 344.68 L 400.25 343.46 L 391.70 342.16 L 383.16 340.79 L 374.66 339.37 L 366.25 337.89 L 357.95 336.36 L 349.79 334.79 L 341.82 333.19 L 334.04 331.56 L 326.51 329.91 L 319.26 328.25 L 312.31 326.58 L 305.69 324.91 L 299.44 323.25 L 293.60 321.60 L 288.16 319.94 L 283.07 318.24 L 278.33 316.51 L 273.89 314.75 L 269.75 312.96 L 265.87 311.15 L 262.23 309.32 L 258.80 307.47 L 255.58 305.61 L 252.51 303.74 L 249.60 301.86 L 246.80 299.98 L 244.10 298.09 L 241.47 296.21 L 238.89 294.34 L 236.34 292.48 L 233.78 290.63 L 231.20 288.80 L 228.65 286.93 L 226.19 284.98 L 223.83 282.95 L 221.57 280.88 L 219.40 278.77 L 217.33 276.65 L 215.36 274.53 L 213.48 272.42 L 211.70 270.35 L 210.01 268.33 L 208.43 266.37 L 206.93 264.50 L 205.54 262.73 L 204.24 261.08 L 203.03 259.57 L 201.93 258.20 L 200.91 257.01 L 200.00 256.00 L 199.18 255.27 L 198.46 254.87 L 197.83 254.75 L 197.30 254.87 L 196.87 255.18 L 196.53 255.64 L 196.29 256.19 L 196.15 256.81 L 196.10 257.44 L 196.15 258.02 L 196.29 258.53 L 196.53 258.92 L 196.87 259.13 L 197.30 259.12 L 197.83 258.85 L 198.46 258.27 L 199.18 257.33 L 200.00 256.00 Z" />
    </clipPath>
    <clipPath id="innerClip">
      <g transform="translate(512.14 255.89) scale(0.8600 0.8200) translate(-512.14 -255.89)">
        <path d="M 200.00 256.00 L 200.87 254.26 L 201.75 252.14 L 202.67 249.71 L 203.64 246.98 L 204.67 244.00 L 205.78 240.81 L 206.98 237.46 L 208.30 233.96 L 209.75 230.38 L 211.34 226.73 L 213.09 223.07 L 215.02 219.43 L 217.14 215.86 L 219.47 212.38 L 222.03 209.04 L 224.82 205.88 L 227.88 202.93 L 231.20 200.24 L 234.79 197.70 L 238.60 195.21 L 242.65 192.75 L 246.91 190.33 L 251.38 187.97 L 256.04 185.66 L 260.91 183.42 L 265.95 181.23 L 271.18 179.12 L 276.57 177.09 L 282.12 175.14 L 287.82 173.27 L 293.67 171.50 L 299.66 169.82 L 305.77 168.24 L 312.00 166.77 L 318.35 165.40 L 324.80 164.16 L 331.42 163.03 L 338.26 161.99 L 345.31 161.05 L 352.55 160.21 L 359.97 159.47 L 367.56 158.81 L 375.28 158.25 L 383.13 157.78 L 391.10 157.40 L 399.16 157.10 L 407.30 156.88 L 415.51 156.75 L 423.77 156.70 L 432.05 156.73 L 440.36 156.83 L 448.66 157.02 L 456.95 157.27 L 465.20 157.60 L 473.53 158.02 L 482.02 158.56 L 490.66 159.21 L 499.42 159.96 L 508.27 160.80 L 517.20 161.73 L 526.18 162.74 L 535.18 163.83 L 544.17 164.98 L 553.15 166.19 L 562.08 167.46 L 570.93 168.78 L 579.69 170.13 L 588.33 171.52 L 596.83 172.94 L 605.15 174.37 L 613.28 175.82 L 621.20 177.28 L 628.97 178.77 L 636.69 180.31 L 644.35 181.91 L 651.93 183.56 L 659.43 185.26 L 666.84 187.00 L 674.16 188.78 L 681.37 190.60 L 688.48 192.45 L 695.46 194.33 L 702.31 196.24 L 709.02 198.17 L 715.59 200.13 L 722.01 202.10 L 728.27 204.08 L 734.36 206.08 L 740.27 208.08 L 746.00 210.08 L 751.63 212.09 L 757.23 214.13 L 762.79 216.18 L 768.28 218.26 L 773.67 220.36 L 778.93 222.47 L 784.06 224.61 L 789.01 226.76 L 793.78 228.94 L 798.32 231.14 L 802.63 233.35 L 806.67 235.59 L 810.42 237.85 L 813.86 240.13 L 816.96 242.42 L 819.70 244.74 L 822.05 247.08 L 824.00 249.44 L 825.54 251.84 L 826.72 254.29 L 827.54 256.79 L 828.02 259.33 L 828.19 261.90 L 828.04 264.50 L 827.61 267.12 L 826.91 269.76 L 825.95 272.40 L 824.75 275.04 L 823.32 277.68 L 821.69 280.30 L 819.86 282.90 L 817.86 285.47 L 815.69 288.01 L 813.39 290.51 L 810.95 292.96 L 808.40 295.36 L 805.70 297.74 L 802.81 300.13 L 799.73 302.53 L 796.46 304.93 L 792.99 307.32 L 789.33 309.69 L 785.48 312.05 L 781.44 314.38 L 777.20 316.68 L 772.77 318.94 L 768.15 321.15 L 763.33 323.30 L 758.33 325.40 L 753.13 327.42 L 747.73 329.37 L 742.15 331.25 L 736.37 333.03 L 730.40 334.72 L 724.17 336.34 L 717.62 337.91 L 710.79 339.44 L 703.69 340.92 L 696.36 342.34 L 688.80 343.71 L 681.05 345.01 L 673.14 346.26 L 665.07 347.43 L 656.89 348.53 L 648.62 349.56 L 640.27 350.51 L 631.87 351.38 L 623.45 352.17 L 615.02 352.87 L 606.63 353.47 L 598.28 353.99 L 590.00 354.40 L 581.70 354.71 L 573.27 354.93 L 564.72 355.05 L 556.08 355.08 L 547.36 355.03 L 538.58 354.89 L 529.75 354.66 L 520.88 354.36 L 512.00 353.99 L 503.12 353.55 L 494.25 353.03 L 485.42 352.46 L 476.64 351.82 L 467.92 351.12 L 459.28 350.38 L 450.73 349.58 L 442.30 348.73 L 434.00 347.84 L 425.70 346.88 L 417.29 345.82 L 408.79 344.68 L 400.25 343.46 L 391.70 342.16 L 383.16 340.79 L 374.66 339.37 L 366.25 337.89 L 357.95 336.36 L 349.79 334.79 L 341.82 333.19 L 334.04 331.56 L 326.51 329.91 L 319.26 328.25 L 312.31 326.58 L 305.69 324.91 L 299.44 323.25 L 293.60 321.60 L 288.16 319.94 L 283.07 318.24 L 278.33 316.51 L 273.89 314.75 L 269.75 312.96 L 265.87 311.15 L 262.23 309.32 L 258.80 307.47 L 255.58 305.61 L 252.51 303.74 L 249.60 301.86 L 246.80 299.98 L 244.10 298.09 L 241.47 296.21 L 238.89 294.34 L 236.34 292.48 L 233.78 290.63 L 231.20 288.80 L 228.65 286.93 L 226.19 284.98 L 223.83 282.95 L 221.57 280.88 L 219.40 278.77 L 217.33 276.65 L 215.36 274.53 L 213.48 272.42 L 211.70 270.35 L 210.01 268.33 L 208.43 266.37 L 206.93 264.50 L 205.54 262.73 L 204.24 261.08 L 203.03 259.57 L 201.93 258.20 L 200.91 257.01 L 200.00 256.00 L 199.18 255.27 L 198.46 254.87 L 197.83 254.75 L 197.30 254.87 L 196.87 255.18 L 196.53 255.64 L 196.29 256.19 L 196.15 256.81 L 196.10 257.44 L 196.15 258.02 L 196.29 258.53 L 196.53 258.92 L 196.87 259.13 L 197.30 259.12 L 197.83 258.85 L 198.46 258.27 L 199.18 257.33 L 200.00 256.00 Z" />
      </g>
    </clipPath>
  </defs>

  <!-- transparent background -->
  <!-- stem -->
  <g>
    <path d="M 120.25 236.05
             L 208.74 259.86"
          stroke="rgb(32,58,35)"
          stroke-width="35.71"
          stroke-linecap="round" fill="none"/>
  </g>

  <!-- pepper body -->
  <path d="M 200.00 256.00 L 200.87 254.26 L 201.75 252.14 L 202.67 249.71 L 203.64 246.98 L 204.67 244.00 L 205.78 240.81 L 206.98 237.46 L 208.30 233.96 L 209.75 230.38 L 211.34 226.73 L 213.09 223.07 L 215.02 219.43 L 217.14 215.86 L 219.47 212.38 L 222.03 209.04 L 224.82 205.88 L 227.88 202.93 L 231.20 200.24 L 234.79 197.70 L 238.60 195.21 L 242.65 192.75 L 246.91 190.33 L 251.38 187.97 L 256.04 185.66 L 260.91 183.42 L 265.95 181.23 L 271.18 179.12 L 276.57 177.09 L 282.12 175.14 L 287.82 173.27 L 293.67 171.50 L 299.66 169.82 L 305.77 168.24 L 312.00 166.77 L 318.35 165.40 L 324.80 164.16 L 331.42 163.03 L 338.26 161.99 L 345.31 161.05 L 352.55 160.21 L 359.97 159.47 L 367.56 158.81 L 375.28 158.25 L 383.13 157.78 L 391.10 157.40 L 399.16 157.10 L 407.30 156.88 L 415.51 156.75 L 423.77 156.70 L 432.05 156.73 L 440.36 156.83 L 448.66 157.02 L 456.95 157.27 L 465.20 157.60 L 473.53 158.02 L 482.02 158.56 L 490.66 159.21 L 499.42 159.96 L 508.27 160.80 L 517.20 161.73 L 526.18 162.74 L 535.18 163.83 L 544.17 164.98 L 553.15 166.19 L 562.08 167.46 L 570.93 168.78 L 579.69 170.13 L 588.33 171.52 L 596.83 172.94 L 605.15 174.37 L 613.28 175.82 L 621.20 177.28 L 628.97 178.77 L 636.69 180.31 L 644.35 181.91 L 651.93 183.56 L 659.43 185.26 L 666.84 187.00 L 674.16 188.78 L 681.37 190.60 L 688.48 192.45 L 695.46 194.33 L 702.31 196.24 L 709.02 198.17 L 715.59 200.13 L 722.01 202.10 L 728.27 204.08 L 734.36 206.08 L 740.27 208.08 L 746.00 210.08 L 751.63 212.09 L 757.23 214.13 L 762.79 216.18 L 768.28 218.26 L 773.67 220.36 L 778.93 222.47 L 784.06 224.61 L 789.01 226.76 L 793.78 228.94 L 798.32 231.14 L 802.63 233.35 L 806.67 235.59 L 810.42 237.85 L 813.86 240.13 L 816.96 242.42 L 819.70 244.74 L 822.05 247.08 L 824.00 249.44 L 825.54 251.84 L 826.72 254.29 L 827.54 256.79 L 828.02 259.33 L 828.19 261.90 L 828.04 264.50 L 827.61 267.12 L 826.91 269.76 L 825.95 272.40 L 824.75 275.04 L 823.32 277.68 L 821.69 280.30 L 819.86 282.90 L 817.86 285.47 L 815.69 288.01 L 813.39 290.51 L 810.95 292.96 L 808.40 295.36 L 805.70 297.74 L 802.81 300.13 L 799.73 302.53 L 796.46 304.93 L 792.99 307.32 L 789.33 309.69 L 785.48 312.05 L 781.44 314.38 L 777.20 316.68 L 772.77 318.94 L 768.15 321.15 L 763.33 323.30 L 758.33 325.40 L 753.13 327.42 L 747.73 329.37 L 742.15 331.25 L 736.37 333.03 L 730.40 334.72 L 724.17 336.34 L 717.62 337.91 L 710.79 339.44 L 703.69 340.92 L 696.36 342.34 L 688.80 343.71 L 681.05 345.01 L 673.14 346.26 L 665.07 347.43 L 656.89 348.53 L 648.62 349.56 L 640.27 350.51 L 631.87 351.38 L 623.45 352.17 L 615.02 352.87 L 606.63 353.47 L 598.28 353.99 L 590.00 354.40 L 581.70 354.71 L 573.27 354.93 L 564.72 355.05 L 556.08 355.08 L 547.36 355.03 L 538.58 354.89 L 529.75 354.66 L 520.88 354.36 L 512.00 353.99 L 503.12 353.55 L 494.25 353.03 L 485.42 352.46 L 476.64 351.82 L 467.92 351.12 L 459.28 350.38 L 450.73 349.58 L 442.30 348.73 L 434.00 347.84 L 425.70 346.88 L 417.29 345.82 L 408.79 344.68 L 400.25 343.46 L 391.70 342.16 L 383.16 340.79 L 374.66 339.37 L 366.25 337.89 L 357.95 336.36 L 349.79 334.79 L 341.82 333.19 L 334.04 331.56 L 326.51 329.91 L 319.26 328.25 L 312.31 326.58 L 305.69 324.91 L 299.44 323.25 L 293.60 321.60 L 288.16 319.94 L 283.07 318.24 L 278.33 316.51 L 273.89 314.75 L 269.75 312.96 L 265.87 311.15 L 262.23 309.32 L 258.80 307.47 L 255.58 305.61 L 252.51 303.74 L 249.60 301.86 L 246.80 299.98 L 244.10 298.09 L 241.47 296.21 L 238.89 294.34 L 236.34 292.48 L 233.78 290.63 L 231.20 288.80 L 228.65 286.93 L 226.19 284.98 L 223.83 282.95 L 221.57 280.88 L 219.40 278.77 L 217.33 276.65 L 215.36 274.53 L 213.48 272.42 L 211.70 270.35 L 210.01 268.33 L 208.43 266.37 L 206.93 264.50 L 205.54 262.73 L 204.24 261.08 L 203.03 259.57 L 201.93 258.20 L 200.91 257.01 L 200.00 256.00 L 199.18 255.27 L 198.46 254.87 L 197.83 254.75 L 197.30 254.87 L 196.87 255.18 L 196.53 255.64 L 196.29 256.19 L 196.15 256.81 L 196.10 257.44 L 196.15 258.02 L 196.29 258.53 L 196.53 258.92 L 196.87 259.13 L 197.30 259.12 L 197.83 258.85 L 198.46 258.27 L 199.18 257.33 L 200.00 256.00 Z" fill="rgb(34,197,94)" />

  <!-- inner text (clipped) -->
  <g clip-path="url(#innerClip)">
    <text x="512.14" y="255.89"
          text-anchor="middle" dominant-baseline="middle"
          font-family="Noto Sans, Arial, Helvetica, sans-serif"
          font-weight="800"
          font-size="140"
          fill="#FFFFFF"
          letter-spacing="2">CHOICEHONEY</text>
  </g>
</svg>
