# https://github.com/mikedh/trimesh
mtllib material.mtl
usemtl carpet
v 0.35667554 0.03483402 -0.00000000
v 0.35667554 0.19923459 -0.04405100
v 0.35667554 -0.00000000 -0.01447760
v 0.35667554 0.02292834 -0.04443259
v 0.35667554 0.22216293 -0.07400598
v 0.35667554 0.18732892 -0.08848359
v 0.35667554 0.19923459 -0.04405100
v 0.35667554 0.22216293 -0.07400598
v 0.38657555 0.19328175 -0.06626730
v 0.00000000 0.02888118 -0.02221629
v 0.02990000 0.00000000 -0.01447760
v 0.02990000 0.02292834 -0.04443259
v 0.35667554 0.02292834 -0.04443259
v 0.38657555 0.02888118 -0.02221629
v 0.35667554 0.18732892 -0.08848359
v 0.38657555 0.19328175 -0.06626730
v 0.35667554 -0.00000000 -0.01447760
v 0.38657555 0.02888118 -0.02221629
v 0.02990000 0.00000000 -0.01447760
v 0.00000000 0.02888118 -0.02221629
v 0.38657555 0.19328175 -0.06626730
v 0.00000000 0.19328175 -0.06626730
v 0.35667554 0.22216293 -0.07400598
v 0.02990000 0.22216293 -0.07400598
v 0.35667554 0.03483402 -0.00000000
v 0.02990000 0.03483402 -0.00000000
v 0.35667554 0.19923459 -0.04405100
v 0.02990000 0.19923459 -0.04405100
v 0.02990000 0.03483402 -0.00000000
v 0.02990000 0.00000000 -0.01447760
v 0.02990000 0.19923459 -0.04405100
v 0.02990000 0.02292834 -0.04443259
v 0.02990000 0.22216293 -0.07400598
v 0.02990000 0.18732892 -0.08848359
v 0.00000000 0.02888118 -0.02221629
v 0.02990000 0.03483402 -0.00000000
v 0.02990000 0.02292834 -0.04443259
v 0.35667554 0.02292834 -0.04443259
v 0.35667554 0.03483402 -0.00000000
v 0.38657555 0.02888118 -0.02221629
v 0.35667554 0.02292834 -0.04443259
v 0.35667554 -0.00000000 -0.01447760
v 0.38657555 0.02888118 -0.02221629
v 0.00000000 0.02888118 -0.02221629
v 0.00000000 0.19328175 -0.06626730
v 0.02990000 0.03483402 -0.00000000
v 0.02990000 0.19923459 -0.04405100
v 0.00000000 0.19328175 -0.06626730
v 0.02990000 0.18732892 -0.08848359
v 0.02990000 0.22216293 -0.07400598
v 0.00000000 0.19328175 -0.06626730
v 0.02990000 0.18732892 -0.08848359
v 0.02990000 0.19923459 -0.04405100
v 0.35667554 0.18732892 -0.08848359
v 0.35667554 0.19923459 -0.04405100
v 0.38657555 0.19328175 -0.06626730
v 0.02990000 0.02292834 -0.04443259
v 0.02990000 0.18732892 -0.08848359
v 0.00000000 0.02888118 -0.02221629
v 0.00000000 0.19328175 -0.06626730
v 0.35667554 0.02292834 -0.04443259
v 0.35667554 0.18732892 -0.08848359
v 0.02990000 0.02292834 -0.04443259
v 0.02990000 0.18732892 -0.08848359
v 0.35667554 -0.00000000 -0.01447760
v 0.02990000 0.00000000 -0.01447760
v 0.35667554 0.03483402 -0.00000000
v 0.02990000 0.03483402 -0.00000000
v 0.02990000 0.00000000 -0.01447760
v 0.35667554 -0.00000000 -0.01447760
v 0.02990000 0.02292834 -0.04443259
v 0.35667554 0.02292834 -0.04443259
v 0.38657555 0.02888118 -0.02221629
v 0.35667554 -0.00000000 -0.01447760
v 0.35667554 0.03483402 -0.00000000
v 0.38657555 0.02888118 -0.02221629
v 0.35667554 0.03483402 -0.00000000
v 0.38657555 0.19328175 -0.06626730
v 0.35667554 0.19923459 -0.04405100
v 0.02990000 0.22216293 -0.07400598
v 0.35667554 0.22216293 -0.07400598
v 0.02990000 0.19923459 -0.04405100
v 0.35667554 0.19923459 -0.04405100
v 0.00000000 0.19328175 -0.06626730
v 0.02990000 0.22216293 -0.07400598
v 0.02990000 0.19923459 -0.04405100
v 0.02990000 0.00000000 -0.01447760
v 0.00000000 0.02888118 -0.02221629
v 0.02990000 0.03483402 -0.00000000
v 0.35667554 0.18732892 -0.08848359
v 0.35667554 0.22216293 -0.07400598
v 0.02990000 0.18732892 -0.08848359
v 0.02990000 0.22216293 -0.07400598
v 0.35667554 0.18732892 -0.08848359
v 0.38657555 0.19328175 -0.06626730
v 0.35667554 0.22216293 -0.07400598
vn 1.00000000 0.00000000 -0.00000000
vn 1.00000000 0.00000000 -0.00000000
vn 1.00000000 0.00000000 -0.00000000
vn 1.00000000 0.00000000 -0.00000000
vn 1.00000000 0.00000000 -0.00000000
vn 1.00000000 0.00000000 -0.00000000
vn 0.52057922 0.67799747 0.51895738
vn 0.52057922 0.67799747 0.51895738
vn 0.52057922 0.67799747 0.51895738
vn -0.52057922 -0.67799747 -0.51895738
vn -0.52057922 -0.67799747 -0.51895738
vn -0.52057922 -0.67799747 -0.51895738
vn 0.60971075 -0.20514616 -0.76561600
vn 0.60971075 -0.20514616 -0.76561600
vn 0.60971075 -0.20514616 -0.76561600
vn 0.60971075 -0.20514616 -0.76561600
vn 0.00000000 -0.25881904 -0.96592581
vn 0.00000000 -0.25881904 -0.96592581
vn 0.00000000 -0.25881904 -0.96592581
vn 0.00000000 -0.25881904 -0.96592581
vn 0.00000000 -0.25881904 -0.96592581
vn 0.00000000 -0.25881904 -0.96592581
vn 0.00000000 -0.25881904 -0.96592581
vn 0.00000000 -0.25881904 -0.96592581
vn 0.00000000 0.25881904 0.96592581
vn 0.00000000 0.25881904 0.96592581
vn 0.00000000 0.25881904 0.96592581
vn 0.00000000 0.25881904 0.96592581
vn -1.00000000 0.00000000 -0.00000000
vn -1.00000000 0.00000000 -0.00000000
vn -1.00000000 0.00000000 -0.00000000
vn -1.00000000 0.00000000 -0.00000000
vn -1.00000000 0.00000000 -0.00000000
vn -1.00000000 0.00000000 -0.00000000
vn 0.00000000 -0.96592581 0.25881904
vn 0.00000000 -0.96592581 0.25881904
vn 0.00000000 -0.96592581 0.25881904
vn 0.00000000 -0.96592581 0.25881904
vn 0.00000000 -0.96592581 0.25881904
vn 0.00000000 -0.96592581 0.25881904
vn 0.52057922 -0.67799747 -0.51895738
vn 0.52057922 -0.67799747 -0.51895738
vn 0.52057922 -0.67799747 -0.51895738
vn -0.60971075 0.20514616 0.76561600
vn -0.60971075 0.20514616 0.76561600
vn -0.60971075 0.20514616 0.76561600
vn -0.60971075 0.20514616 0.76561600
vn -0.52057922 0.32768434 -0.78842896
vn -0.52057922 0.32768434 -0.78842896
vn -0.52057922 0.32768434 -0.78842896
vn 0.00000000 0.96592581 -0.25881904
vn 0.00000000 0.96592581 -0.25881904
vn 0.00000000 0.96592581 -0.25881904
vn 0.00000000 0.96592581 -0.25881904
vn 0.00000000 0.96592581 -0.25881904
vn 0.00000000 0.96592581 -0.25881904
vn -0.60971075 -0.20514616 -0.76561600
vn -0.60971075 -0.20514616 -0.76561600
vn -0.60971075 -0.20514616 -0.76561600
vn -0.60971075 -0.20514616 -0.76561600
vn 0.00000000 -0.25881904 -0.96592581
vn 0.00000000 -0.25881904 -0.96592581
vn 0.00000000 -0.25881904 -0.96592581
vn 0.00000000 -0.25881904 -0.96592581
vn 0.00000000 -0.38378918 0.92342073
vn 0.00000000 -0.38378918 0.92342073
vn 0.00000000 -0.38378918 0.92342073
vn 0.00000000 -0.38378918 0.92342073
vn 0.00000000 -0.79408157 -0.60781121
vn 0.00000000 -0.79408157 -0.60781121
vn 0.00000000 -0.79408157 -0.60781121
vn 0.00000000 -0.79408157 -0.60781121
vn 0.52057922 -0.32768434 0.78842896
vn 0.52057922 -0.32768434 0.78842896
vn 0.52057922 -0.32768434 0.78842896
vn 0.60971075 0.20514616 0.76561600
vn 0.60971075 0.20514616 0.76561600
vn 0.60971075 0.20514616 0.76561600
vn 0.60971075 0.20514616 0.76561600
vn 0.00000000 0.79408157 0.60781121
vn 0.00000000 0.79408157 0.60781121
vn 0.00000000 0.79408157 0.60781121
vn 0.00000000 0.79408157 0.60781121
vn -0.52057922 0.67799747 0.51895738
vn -0.52057922 0.67799747 0.51895738
vn -0.52057922 0.67799747 0.51895738
vn -0.52057922 -0.32768434 0.78842896
vn -0.52057922 -0.32768434 0.78842896
vn -0.52057922 -0.32768434 0.78842896
vn 0.00000000 0.38378918 -0.92342073
vn 0.00000000 0.38378918 -0.92342073
vn 0.00000000 0.38378918 -0.92342073
vn 0.00000000 0.38378918 -0.92342073
vn 0.52057922 0.32768434 -0.78842896
vn 0.52057922 0.32768434 -0.78842896
vn 0.52057922 0.32768434 -0.78842896
vt -0.00000000 1.37141812
vt 1.73429143 7.84388161
vt 0.56998444 0.00000000
vt 1.74931455 0.90269071
vt 2.91362143 8.74657249
vt 3.48360586 7.37515450
vt 11.14217472 -0.14672124
vt 11.97738647 1.08132207
vt 12.59269619 -0.46555555
vt -0.61944026 1.25447857
vt -1.23475015 -0.29239905
vt -2.06996250 0.93564421
vt -9.89491940 2.95879769
vt -11.36063766 3.19825435
vt -8.81452465 9.57191372
vt -10.28024292 9.81136990
vt -14.04234409 0.14752281
vt -15.21951008 1.32468820
vt -1.17716539 0.14752281
vt -0.00000000 1.32468820
vt -15.21951008 8.02547550
vt -0.00000000 8.02547550
vt -14.04234409 9.20264053
vt -1.17716539 9.20264053
vt 14.04234409 1.32468820
vt 1.17716539 1.32468820
vt 14.04234409 8.02547550
vt 1.17716539 8.02547550
vt 0.00000000 1.37141812
vt -0.56998444 0.00000000
vt -1.73429143 7.84388161
vt -1.74931455 0.90269071
vt -2.91362143 8.74657249
vt -3.48360586 7.37515450
vt -0.00000000 -0.55056262
vt 1.17716539 0.35494912
vt 1.17716539 -1.45607448
vt 14.04234409 -1.45607448
vt 14.04234409 0.35494912
vt 15.21951008 -0.55056262
vt -8.67505264 8.24350452
vt -9.51026535 7.01546144
vt -10.12557507 8.56233883
vt -0.54487675 1.25323260
vt -1.62527144 7.86634827
vt 0.92084169 1.49268913
vt -0.15955299 8.10580444
vt -1.43753469 6.47594833
vt -2.90182161 6.22788858
vt -2.58775926 7.67945147
vt 0.00000000 -0.55056262
vt -1.17716539 -1.45607448
vt -1.17716539 0.35494912
vt -14.04234409 -1.45607448
vt -14.04234409 0.35494912
vt -15.21951008 -0.55056262
vt -2.01059508 1.01377594
vt -3.09098983 7.62689161
vt -0.54487675 1.25323260
vt -1.62527144 7.86634827
vt -14.04234409 1.32468820
vt -14.04234409 8.02547550
vt -1.17716539 1.32468820
vt -1.17716539 8.02547550
vt 14.04234409 -0.21875381
vt 1.17716539 -0.21875381
vt 14.04234409 1.26639593
vt 1.17716539 1.26639593
vt -1.17716539 0.45261413
vt -14.04234409 0.45261413
vt -1.17716539 1.93776393
vt -14.04234409 1.93776393
vt 13.18268299 3.58304811
vt 12.03245831 2.37954497
vt 11.71839619 3.83110785
vt 12.45039082 -0.69178915
vt 10.98467255 -0.45233262
vt 13.53078556 5.92132664
vt 12.06506729 6.16078329
vt 1.17716539 7.62991810
vt 14.04234409 7.62991810
vt 1.17716539 6.14476824
vt 14.04234409 6.14476824
vt -1.84768128 6.84230518
vt -1.23237133 8.38918304
vt -0.39715904 7.16113949
vt 0.66828722 -0.36840713
vt -0.48193747 0.83509600
vt 0.98234951 1.08315575
vt -14.04234409 5.47340012
vt -14.04234409 6.95854998
vt -1.17716539 5.47340012
vt -1.17716539 6.95854998
vt -9.79892445 3.47993660
vt -11.26321125 3.72799635
vt -10.11298656 4.93149948
f 3/3/3 2/2/2 1/1/1
f 2/2/2 3/3/3 4/4/4
f 2/2/2 4/4/4 5/5/5
f 5/5/5 4/4/4 6/6/6
f 9/9/9 8/8/8 7/7/7
f 12/12/12 11/11/11 10/10/10
f 15/15/15 14/14/14 13/13/13
f 14/14/14 15/15/15 16/16/16
f 19/19/19 18/18/18 17/17/17
f 18/18/18 19/19/19 20/20/20
f 18/18/18 20/20/20 21/21/21
f 21/21/21 20/20/20 22/22/22
f 21/21/21 22/22/22 23/23/23
f 23/23/23 22/22/22 24/24/24
f 27/27/27 26/26/26 25/25/25
f 26/26/26 27/27/27 28/28/28
f 31/31/31 30/30/30 29/29/29
f 30/30/30 31/31/31 32/32/32
f 32/32/32 31/31/31 33/33/33
f 32/32/32 33/33/33 34/34/34
f 37/37/37 36/36/36 35/35/35
f 36/36/36 37/37/37 38/38/38
f 36/36/36 38/38/38 39/39/39
f 39/39/39 38/38/38 40/40/40
f 43/43/43 42/42/42 41/41/41
f 46/46/46 45/45/45 44/44/44
f 45/45/45 46/46/46 47/47/47
f 50/50/50 49/49/49 48/48/48
f 53/53/53 52/52/52 51/51/51
f 52/52/52 53/53/53 54/54/54
f 54/54/54 53/53/53 55/55/55
f 54/54/54 55/55/55 56/56/56
f 59/59/59 58/58/58 57/57/57
f 58/58/58 59/59/59 60/60/60
f 63/63/63 62/62/62 61/61/61
f 62/62/62 63/63/63 64/64/64
f 67/67/67 66/66/66 65/65/65
f 66/66/66 67/67/67 68/68/68
f 71/71/71 70/70/70 69/69/69
f 70/70/70 71/71/71 72/72/72
f 75/75/75 74/74/74 73/73/73
f 78/78/78 77/77/77 76/76/76
f 77/77/77 78/78/78 79/79/79
f 82/82/82 81/81/81 80/80/80
f 81/81/81 82/82/82 83/83/83
f 86/86/86 85/85/85 84/84/84
f 89/89/89 88/88/88 87/87/87
f 92/92/92 91/91/91 90/90/90
f 91/91/91 92/92/92 93/93/93
f 96/96/96 95/95/95 94/94/94

