# https://github.com/mikedh/trimesh
mtllib material.mtl
usemtl BrownDark
v 0.19787270 -0.47665560 0.04505253
v 0.13696924 -0.47665560 0.00000000
v 0.20581973 -0.47665560 0.00000000
v 0.13557151 -0.47665560 0.04505253
v 0.24209851 -0.38146508 0.00000003
v 0.26777476 -0.23472607 0.06119088
v 0.23495169 -0.38146508 0.04051623
v 0.27778038 -0.23067732 0.00000001
v 0.18591140 -0.26750371 0.11717023
v 0.12941180 -0.27823138 0.08695708
v 0.13055715 -0.29025075 0.11717023
v 0.16424516 -0.26363838 0.08695708
v 0.26777479 -0.23472618 -0.06119118
v 0.23495169 -0.38146508 -0.04051622
v 0.24765250 -0.43477529 0.04705422
v 0.25595266 -0.43477529 0.00000002
v 0.12086158 -0.29417405 0.10696698
v 0.13340299 -0.38146508 -0.06884332
v 0.13340294 -0.38146508 0.06884337
v 0.12086166 -0.29417413 -0.10696699
v 0.12764314 -0.43423063 -0.08106636
v 0.12764308 -0.43423063 0.08106639
v 0.13340299 -0.38146508 -0.06884332
v 0.24765256 -0.43477529 -0.04705419
v 0.19034025 -0.38146508 0.07523614
v 0.13979165 -0.38146508 0.07523614
v 0.13524720 -0.43423063 0.08887564
v 0.19415572 -0.43423063 0.08887564
v 0.13979165 -0.38146508 0.07523614
v 0.12764308 -0.43423063 0.08106639
v 0.12610379 -0.45046592 -0.07715360
v 0.12610376 -0.45046592 0.07715361
v 0.12764314 -0.43423063 -0.08106636
v 0.19308066 -0.46411693 -0.07534067
v 0.21532121 -0.47355121 -0.04530085
v 0.19787276 -0.47665560 -0.04505252
v 0.21039233 -0.46208858 -0.07340046
v 0.23090860 -0.46450204 -0.04576845
v 0.22064304 -0.45883983 -0.07027327
v 0.22452399 -0.45019943 -0.07396870
v 0.24226186 -0.45088571 -0.04638414
v 0.22828028 -0.43450296 -0.07675606
v 0.19283727 -0.45038253 -0.08502211
v 0.21188718 -0.43435556 -0.08578812
v 0.21108672 -0.45091861 -0.08125787
v 0.19415575 -0.43423063 -0.08887563
v 0.22828028 -0.43450296 -0.07675606
v 0.21532115 -0.47355121 0.04530084
v 0.19308063 -0.46411693 0.07534066
v 0.21039227 -0.46208858 0.07340046
v 0.23090854 -0.46450204 0.04576845
v 0.22064301 -0.45883983 0.07027327
v 0.22452399 -0.45019943 0.07396871
v 0.24226183 -0.45088571 0.04638416
v 0.22828025 -0.43450296 0.07675608
v 0.19283721 -0.45038253 0.08502211
v 0.13524720 -0.43423063 0.08887564
v 0.13364491 -0.45045650 0.08510723
v 0.21188712 -0.43435556 0.08578813
v 0.21108666 -0.45091861 0.08125787
v 0.22828025 -0.43450296 0.07675608
v 0.13364491 -0.45045650 0.08510723
v 0.13314855 -0.46421710 0.07545590
v 0.12610376 -0.45046592 0.07715361
v 0.12564954 -0.46422964 -0.06729315
v 0.12564954 -0.46422964 0.06729314
v 0.12610379 -0.45046592 -0.07715360
v 0.13557151 -0.47665560 0.04505253
v 0.13314855 -0.46421710 -0.07545590
v 0.13557151 -0.47665560 -0.04505252
v 0.24430943 -0.24422137 -0.10077436
v 0.21934849 -0.38146508 -0.06506687
v 0.19815119 -0.25041631 -0.08377498
v 0.22350286 -0.25264069 -0.11290909
v 0.21370120 -0.24412401 -0.07471304
v 0.16424520 -0.26363847 -0.08695711
v 0.18591146 -0.26750380 -0.11717025
v 0.20553483 -0.38146508 -0.07259319
v 0.19034031 -0.38146508 -0.07523608
v 0.22284958 -0.47346777 0.00000000
v 0.23835704 -0.46438932 0.00000001
v 0.24998128 -0.45080227 0.00000001
v 0.22350280 -0.25264058 0.11290905
v 0.19815114 -0.25041622 0.08377493
v 0.24430937 -0.24422127 0.10077426
v 0.21370117 -0.24412392 0.07471295
v 0.21934849 -0.38146508 0.06506692
v 0.20553483 -0.38146508 0.07259324
v 0.12694827 -0.46944651 0.05401270
v 0.12694827 -0.46944651 -0.05401270
v 0.12781173 -0.46959385 0.00000000
v 0.12564954 -0.46422964 0.06729314
v 0.12564954 -0.46422964 -0.06729315
v 0.13055725 -0.29025084 -0.11717025
v 0.13979171 -0.38146508 -0.07523608
v 0.13524726 -0.43423063 -0.08887561
v 0.13364494 -0.45045650 -0.08510722
v 0.13364494 -0.45045650 -0.08510722
v 0.12578723 -0.27969816 -0.08593668
v 0.12570944 -0.29221252 -0.11580326
v 0.12941188 -0.27823147 -0.08695711
v 0.12313380 -0.28077185 -0.08314883
v 0.12216060 -0.29364854 -0.11206862
v 0.12216260 -0.28116485 -0.07934056
v 0.12086166 -0.29417413 -0.10696699
v 0.13659735 -0.38146508 -0.07437961
v 0.13425891 -0.38146508 -0.07203970
v 0.12216054 -0.29364842 0.11206860
v 0.12216254 -0.28116480 0.07934054
v 0.12313376 -0.28077179 0.08314881
v 0.12570938 -0.29221240 0.11580326
v 0.12578718 -0.27969807 0.08593667
v 0.13425887 -0.38146508 0.07203975
v 0.13659731 -0.38146508 0.07437968
v 0.13144520 -0.43423063 -0.08782937
v 0.12987435 -0.45046121 -0.08404562
v 0.12866190 -0.43423063 -0.08497098
v 0.12711406 -0.45046467 -0.08113439
v 0.12939909 -0.46422336 -0.07436763
v 0.12665427 -0.46422797 -0.07137986
v 0.13168049 -0.47568983 -0.04625291
v 0.12852415 -0.47305110 -0.04953256
v 0.13168049 -0.47568983 0.04625291
v 0.12939909 -0.46422336 0.07436763
v 0.12852415 -0.47305110 0.04953256
v 0.12665427 -0.46422797 0.07137985
v 0.12987435 -0.45046121 0.08404560
v 0.12711412 -0.45046467 0.08113438
v 0.13144514 -0.43423063 0.08782940
v 0.12866184 -0.43423063 0.08497102
v 0.13300961 -0.47570953 0.00000000
v 0.12965772 -0.47312474 0.00000000
v 0.26777476 -0.23472607 0.06119088
v 0.23123556 -0.23702869 0.04515301
v 0.26777479 -0.23472618 -0.06119118
v 0.23123561 -0.23702878 -0.04515327
v 0.23861878 -0.23404109 0.00000000
vn 0.08301035 -0.97564626 0.20297861
vn -0.11731315 -0.99307227 -0.00000000
vn 0.09991760 -0.99496442 -0.00000000
vn -0.09454634 -0.98086488 0.17014068
vn 0.99993896 0.00869778 -0.00000000
vn 0.70781577 0.60847807 0.35874507
vn 0.93963438 0.00198370 0.34214300
vn 0.77428508 0.63280129 -0.00000000
vn -0.11960204 0.37919247 0.91753900
vn -0.32963043 0.54228342 0.77282023
vn -0.28083134 0.30048525 0.91146582
vn -0.19458601 0.57567066 0.79415268
vn 0.70781577 0.60847807 -0.35874507
vn 0.93963438 0.00198370 -0.34214300
vn 0.93160802 -0.03122044 0.36207160
vn 0.99905396 -0.04284799 -0.00000000
vn -0.98162788 0.09286782 0.16660054
vn -0.99401838 -0.02584918 -0.10602130
vn -0.99401838 -0.02584918 0.10602130
vn -0.98162788 0.09286782 -0.16660054
vn -0.98443556 0.09955138 -0.14459670
vn -0.98443556 0.09955138 0.14459670
vn -0.99401838 -0.02584918 -0.10602130
vn 0.93160802 -0.03122044 -0.36207160
vn 0.12085330 -0.04992828 0.99139380
vn -0.08056886 -0.07910398 0.99359113
vn -0.13028352 0.02200384 0.99121064
vn 0.09213538 0.00640889 0.99569690
vn -0.08056886 -0.07910398 0.99359113
vn -0.98443556 0.09955138 0.14459670
vn -0.99038666 -0.00943022 -0.13785210
vn -0.99038666 -0.00943022 0.13785210
vn -0.98443556 0.09955138 -0.14459670
vn 0.07623523 -0.77550584 -0.62669760
vn 0.31836909 -0.92098761 -0.22446364
vn 0.08301035 -0.97564626 -0.20297861
vn 0.28305918 -0.73885310 -0.61149937
vn 0.61693168 -0.74190497 -0.26245919
vn 0.52345347 -0.65797907 -0.54130679
vn 0.61952573 -0.41233557 -0.66792810
vn 0.82638019 -0.46458328 -0.31812495
vn 0.68266857 -0.00650044 -0.73067415
vn 0.08178961 -0.40992463 -0.90841395
vn 0.33375043 0.00283822 -0.94262522
vn 0.30637532 -0.41123691 -0.85848570
vn 0.09213538 0.00640889 -0.99569690
vn 0.68266857 -0.00650044 -0.73067415
vn 0.31836909 -0.92098761 0.22446364
vn 0.07623523 -0.77550584 0.62669760
vn 0.28305918 -0.73885310 0.61149937
vn 0.61693168 -0.74190497 0.26245919
vn 0.52345347 -0.65797907 0.54130679
vn 0.61952573 -0.41233557 0.66792810
vn 0.82638019 -0.46458328 0.31812495
vn 0.68266857 -0.00650044 0.73067415
vn 0.08178961 -0.40992463 0.90841395
vn -0.13028352 0.02200384 0.99121064
vn -0.12704855 -0.39225441 0.91100800
vn 0.33375043 0.00283822 0.94262522
vn 0.30637532 -0.41123691 0.85848570
vn 0.68266857 -0.00650044 0.73067415
vn -0.12704855 -0.39225441 0.91100800
vn -0.09311197 -0.76647234 0.63548690
vn -0.99038666 -0.00943022 0.13785210
vn -0.94915617 -0.29395428 -0.11243019
vn -0.94915617 -0.29395428 0.11243019
vn -0.99038666 -0.00943022 -0.13785210
vn -0.09454634 -0.98086488 0.17014068
vn -0.09311197 -0.76647234 -0.63548690
vn -0.09454634 -0.98086488 -0.17014068
vn 0.47587511 0.52900785 -0.70259714
vn 0.71208841 -0.01532029 -0.70189518
vn -0.04617450 0.68825340 -0.72396010
vn 0.13403729 0.43186742 -0.89190346
vn 0.20883816 0.81514937 -0.54026920
vn -0.19458601 0.57567066 -0.79415268
vn -0.11960204 0.37919247 -0.91753900
vn 0.36024049 -0.03067110 -0.93234044
vn 0.12085330 -0.04992828 -0.99139380
vn 0.36194953 -0.93218786 -0.00000000
vn 0.65202796 -0.75817132 -0.00000000
vn 0.87084568 -0.49153110 -0.00000000
vn 0.13403729 0.43186742 0.89190346
vn -0.04617450 0.68825340 0.72396010
vn 0.47587511 0.52900785 0.70256662
vn 0.20886868 0.81514937 0.54026920
vn 0.71208841 -0.01532029 0.70189518
vn 0.36024049 -0.03067110 0.93234044
vn -0.89007235 -0.45008698 0.07174902
vn -0.89007235 -0.45011750 -0.07174902
vn -0.93099767 -0.36500138 -0.00000000
vn -0.94915617 -0.29395428 0.11243019
vn -0.94915617 -0.29395428 -0.11243019
vn -0.28083134 0.30048525 -0.91146582
vn -0.08056886 -0.07910398 -0.99359113
vn -0.13028352 0.02200384 -0.99121064
vn -0.12704855 -0.39225441 -0.91100800
vn -0.12704855 -0.39225441 -0.91100800
vn -0.60219121 0.44856104 -0.66039002
vn -0.55119479 0.20871608 -0.80782497
vn -0.32963043 0.54228342 -0.77282023
vn -0.89675587 0.21601000 -0.38615069
vn -0.84966582 0.15179907 -0.50492877
vn -0.99465925 -0.05368206 -0.08786279
vn -0.98162788 0.09286782 -0.16660054
vn -0.47862178 -0.09219642 -0.87313455
vn -0.87862790 -0.06143376 -0.47349468
vn -0.84966582 0.15179907 0.50492877
vn -0.99465925 -0.05368206 0.08786279
vn -0.89675587 0.21601000 0.38615069
vn -0.55119479 0.20871608 0.80782497
vn -0.60219121 0.44856104 0.66039002
vn -0.87862790 -0.06143376 0.47349468
vn -0.47862178 -0.09219642 0.87313455
vn -0.49116489 0.05191198 -0.86950284
vn -0.48652607 -0.32557145 -0.81069368
vn -0.85180211 0.08459730 -0.51692253
vn -0.85360271 -0.17795342 -0.48954740
vn -0.38871425 -0.71114230 -0.58577228
vn -0.74584186 -0.55348366 -0.37058625
vn -0.37183753 -0.91558582 -0.15292825
vn -0.68797874 -0.71184421 -0.14108707
vn -0.37183753 -0.91558582 0.15292825
vn -0.38871425 -0.71114230 0.58577228
vn -0.68797874 -0.71184421 0.14108707
vn -0.74584186 -0.55348366 0.37058625
vn -0.48652607 -0.32560197 0.81069368
vn -0.85360271 -0.17795342 0.48954740
vn -0.49116489 0.05191198 0.86950284
vn -0.85180211 0.08459730 0.51692253
vn -0.44169438 -0.89715260 -0.00000000
vn -0.78667563 -0.61732841 -0.00000000
vn 0.70781577 0.60847807 0.35874507
vn 0.40427870 0.87347025 0.27118748
vn 0.70781577 0.60847807 -0.35874507
vn 0.40427870 0.87347025 -0.27118748
vn 0.46345410 0.88610494 -0.00000000
vt 0.47854647 0.41666663
vt 0.50000006 0.41666669
vt 0.50000006 0.41666669
vt 0.47854650 0.41666663
vt 0.50000006 0.50000000
vt 0.47824010 0.58333337
vt 0.47756171 0.50000000
vt 0.50000006 0.58333337
vt 0.45833337 0.58333343
vt 0.45833337 0.58833170
vt 0.45833340 0.58333343
vt 0.45833337 0.58833230
vt 0.52176017 0.58333337
vt 0.52243841 0.50000000
vt 0.47793722 0.45333034
vt 0.50000006 0.45333040
vt 0.46196178 0.58333343
vt 0.53812629 0.50000000
vt 0.46187377 0.50000000
vt 0.53803843 0.58333337
vt 0.53800565 0.45380712
vt 0.46199456 0.45380712
vt 0.53812635 0.50000000
vt 0.52206290 0.45333040
vt 0.45833337 0.50000000
vt 0.45833340 0.50000000
vt 0.45833343 0.45380712
vt 0.45833343 0.45380712
vt 0.45833337 0.50000000
vt 0.46199453 0.45380712
vt 0.53776801 0.43950254
vt 0.46223211 0.43950254
vt 0.53800559 0.45380712
vt 0.54166675 0.41666669
vt 0.52157187 0.41666669
vt 0.52145362 0.41666663
vt 0.54166675 0.41666669
vt 0.52260435 0.41666669
vt 0.53936368 0.42097700
vt 0.54166675 0.43759871
vt 0.52210313 0.43883759
vt 0.54166675 0.45157015
vt 0.54166675 0.43957269
vt 0.54166669 0.45361030
vt 0.54166675 0.43899727
vt 0.54166675 0.45380712
vt 0.54166675 0.45157021
vt 0.47842818 0.41666663
vt 0.45833343 0.41666663
vt 0.45833340 0.41666663
vt 0.47739577 0.41666663
vt 0.46063647 0.42097700
vt 0.45833340 0.43759871
vt 0.47789699 0.43883771
vt 0.45833337 0.45157021
vt 0.45833337 0.43957263
vt 0.45833340 0.45380712
vt 0.45833337 0.43951046
vt 0.45833337 0.45361036
vt 0.45833337 0.43899715
vt 0.45833337 0.45157015
vt 0.45833337 0.43951046
vt 0.45833340 0.41666663
vt 0.46223211 0.43950248
vt 0.53715223 0.41666669
vt 0.46284798 0.41666663
vt 0.53776807 0.43950260
vt 0.47854653 0.41666663
vt 0.54166675 0.41666669
vt 0.52145368 0.41666669
vt 0.54166675 0.58499837
vt 0.54166669 0.49975479
vt 0.54166675 0.58845997
vt 0.54166675 0.58345383
vt 0.54166675 0.59004319
vt 0.54166675 0.58833218
vt 0.54166675 0.58333337
vt 0.54166669 0.49998820
vt 0.54166669 0.50000000
vt 0.50000006 0.41666669
vt 0.50000006 0.41666669
vt 0.50000006 0.43884456
vt 0.45833343 0.58345383
vt 0.45833343 0.58845997
vt 0.45833340 0.58499849
vt 0.45833343 0.59004319
vt 0.45833337 0.49975479
vt 0.45833337 0.49998826
vt 0.47160625 0.41666663
vt 0.52839392 0.41666669
vt 0.50000012 0.41666675
vt 0.46284798 0.41666663
vt 0.53715217 0.41666669
vt 0.54166675 0.58333337
vt 0.54166669 0.50000000
vt 0.54166675 0.45380712
vt 0.54166681 0.43951046
vt 0.54166681 0.43951046
vt 0.54167861 0.58838505
vt 0.54166675 0.58337200
vt 0.54166675 0.58832788
vt 0.53983438 0.58816582
vt 0.53984964 0.58319366
vt 0.53799349 0.58834350
vt 0.53803843 0.58333343
vt 0.54166669 0.49999619
vt 0.53989553 0.50001395
vt 0.46015054 0.58319366
vt 0.46200690 0.58833903
vt 0.46016568 0.58816433
vt 0.45833340 0.58337206
vt 0.45832166 0.58838493
vt 0.46010461 0.50001395
vt 0.45833340 0.49999619
vt 0.54166675 0.45368958
vt 0.54166681 0.43898475
vt 0.53983080 0.45390248
vt 0.53970641 0.43957359
vt 0.54135501 0.41623855
vt 0.53937232 0.41669554
vt 0.52219415 0.41666663
vt 0.52486426 0.41666669
vt 0.47780597 0.41666669
vt 0.45864516 0.41623849
vt 0.47513589 0.41666663
vt 0.46062791 0.41669548
vt 0.45833337 0.43898469
vt 0.46029371 0.43957359
vt 0.45833337 0.45368958
vt 0.46016932 0.45390248
vt 0.50000006 0.41666669
vt 0.50000012 0.41666675
vt 0.47824007 0.58333337
vt 0.47837785 0.58833224
vt 0.52176011 0.58333337
vt 0.52162236 0.58833218
vt 0.50000006 0.58833218
f 1/1/1 2/2/2 3/3/3
f 1/1/1 4/4/4 2/2/2
f 5/5/5 6/6/6 7/7/7
f 8/8/8 6/6/6 5/5/5
f 9/9/9 10/10/10 11/11/11
f 9/9/9 12/12/12 10/10/10
f 13/13/13 5/5/5 14/14/14
f 13/13/13 8/8/8 5/5/5
f 5/5/5 15/15/15 16/16/16
f 5/5/5 7/7/7 15/15/15
f 17/17/17 18/18/18 19/19/19
f 17/17/17 20/20/20 18/18/18
f 19/19/19 21/21/21 22/22/22
f 19/19/19 23/23/23 21/21/21
f 24/24/24 5/5/5 16/16/16
f 14/14/14 5/5/5 24/24/24
f 25/25/25 11/11/11 26/26/26
f 9/9/9 11/11/11 25/25/25
f 25/25/25 27/27/27 28/28/28
f 25/25/25 29/29/29 27/27/27
f 30/30/30 31/31/31 32/32/32
f 30/30/30 33/33/33 31/31/31
f 34/34/34 35/35/35 36/36/36
f 34/34/34 37/37/37 35/35/35
f 37/37/37 38/38/38 35/35/35
f 37/37/37 39/39/39 38/38/38
f 40/40/40 24/24/24 41/41/41
f 42/42/42 24/24/24 40/40/40
f 43/43/43 44/44/44 45/45/45
f 46/46/46 44/44/44 43/43/43
f 44/44/44 40/40/40 45/45/45
f 44/44/44 47/47/47 40/40/40
f 43/43/43 37/37/37 34/34/34
f 43/43/43 45/45/45 37/37/37
f 45/45/45 39/39/39 37/37/37
f 45/45/45 40/40/40 39/39/39
f 39/39/39 41/41/41 38/38/38
f 40/40/40 41/41/41 39/39/39
f 48/48/48 49/49/49 1/1/1
f 50/50/50 49/49/49 48/48/48
f 51/51/51 50/50/50 48/48/48
f 52/52/52 50/50/50 51/51/51
f 15/15/15 53/53/53 54/54/54
f 15/15/15 55/55/55 53/53/53
f 54/54/54 52/52/52 51/51/51
f 54/54/54 53/53/53 52/52/52
f 56/56/56 57/57/57 58/58/58
f 28/28/28 57/57/57 56/56/56
f 59/59/59 56/56/56 60/60/60
f 59/59/59 28/28/28 56/56/56
f 50/50/50 56/56/56 49/49/49
f 60/60/60 56/56/56 50/50/50
f 53/53/53 59/59/59 60/60/60
f 61/61/61 59/59/59 53/53/53
f 52/52/52 60/60/60 50/50/50
f 53/53/53 60/60/60 52/52/52
f 49/49/49 62/62/62 63/63/63
f 56/56/56 62/62/62 49/49/49
f 64/64/64 65/65/65 66/66/66
f 64/64/64 67/67/67 65/65/65
f 1/1/1 63/63/63 68/68/68
f 49/49/49 63/63/63 1/1/1
f 69/69/69 36/36/36 70/70/70
f 69/69/69 34/34/34 36/36/36
f 71/71/71 14/14/14 72/72/72
f 71/71/71 13/13/13 14/14/14
f 73/73/73 71/71/71 74/74/74
f 75/75/75 71/71/71 73/73/73
f 76/76/76 74/74/74 77/77/77
f 73/73/73 74/74/74 76/76/76
f 47/47/47 14/14/14 24/24/24
f 72/72/72 14/14/14 47/47/47
f 74/74/74 72/72/72 78/78/78
f 74/74/74 71/71/71 72/72/72
f 77/77/77 78/78/78 79/79/79
f 77/77/77 74/74/74 78/78/78
f 44/44/44 72/72/72 47/47/47
f 78/78/78 72/72/72 44/44/44
f 46/46/46 78/78/78 44/44/44
f 79/79/79 78/78/78 46/46/46
f 35/35/35 3/3/3 36/36/36
f 35/35/35 80/80/80 3/3/3
f 38/38/38 80/80/80 35/35/35
f 38/38/38 81/81/81 80/80/80
f 41/41/41 81/81/81 38/38/38
f 41/41/41 82/82/82 81/81/81
f 24/24/24 82/82/82 41/41/41
f 24/24/24 16/16/16 82/82/82
f 83/83/83 12/12/12 9/9/9
f 83/83/83 84/84/84 12/12/12
f 85/85/85 84/84/84 83/83/83
f 85/85/85 86/86/86 84/84/84
f 7/7/7 85/85/85 87/87/87
f 6/6/6 85/85/85 7/7/7
f 88/88/88 9/9/9 25/25/25
f 83/83/83 9/9/9 88/88/88
f 87/87/87 83/83/83 88/88/88
f 85/85/85 83/83/83 87/87/87
f 7/7/7 55/55/55 15/15/15
f 7/7/7 87/87/87 55/55/55
f 88/88/88 28/28/28 59/59/59
f 88/88/88 25/25/25 28/28/28
f 87/87/87 59/59/59 55/55/55
f 87/87/87 88/88/88 59/59/59
f 3/3/3 48/48/48 1/1/1
f 80/80/80 48/48/48 3/3/3
f 80/80/80 51/51/51 48/48/48
f 81/81/81 51/51/51 80/80/80
f 81/81/81 54/54/54 51/51/51
f 82/82/82 54/54/54 81/81/81
f 82/82/82 15/15/15 54/54/54
f 16/16/16 15/15/15 82/82/82
f 89/89/89 90/90/90 91/91/91
f 92/92/92 90/90/90 89/89/89
f 92/92/92 93/93/93 90/90/90
f 94/94/94 79/79/79 95/95/95
f 94/94/94 77/77/77 79/79/79
f 95/95/95 46/46/46 96/96/96
f 95/95/95 79/79/79 46/46/46
f 96/96/96 43/43/43 97/97/97
f 96/96/96 46/46/46 43/43/43
f 98/98/98 34/34/34 69/69/69
f 98/98/98 43/43/43 34/34/34
f 3/3/3 70/70/70 36/36/36
f 3/3/3 2/2/2 70/70/70
f 99/99/99 94/94/94 100/100/100
f 99/99/99 101/101/101 94/94/94
f 102/102/102 100/100/100 103/103/103
f 102/102/102 99/99/99 100/100/100
f 104/104/104 103/103/103 105/105/105
f 104/104/104 102/102/102 103/103/103
f 100/100/100 95/95/95 106/106/106
f 100/100/100 94/94/94 95/95/95
f 103/103/103 106/106/106 107/107/107
f 103/103/103 100/100/100 106/106/106
f 20/20/20 107/107/107 18/18/18
f 20/20/20 103/103/103 107/107/107
f 108/108/108 109/109/109 17/17/17
f 110/110/110 109/109/109 108/108/108
f 111/111/111 110/110/110 108/108/108
f 112/112/112 110/110/110 111/111/111
f 11/11/11 112/112/112 111/111/111
f 10/10/10 112/112/112 11/11/11
f 113/113/113 17/17/17 19/19/19
f 108/108/108 17/17/17 113/113/113
f 114/114/114 108/108/108 113/113/113
f 111/111/111 108/108/108 114/114/114
f 26/26/26 111/111/111 114/114/114
f 11/11/11 111/111/111 26/26/26
f 115/115/115 97/97/97 116/116/116
f 115/115/115 96/96/96 97/97/97
f 117/117/117 116/116/116 118/118/118
f 117/117/117 115/115/115 116/116/116
f 33/33/33 118/118/118 31/31/31
f 33/33/33 117/117/117 118/118/118
f 116/116/116 69/69/69 119/119/119
f 116/116/116 98/98/98 69/69/69
f 118/118/118 119/119/119 120/120/120
f 118/118/118 116/116/116 119/119/119
f 67/67/67 120/120/120 65/65/65
f 67/67/67 118/118/118 120/120/120
f 121/121/121 69/69/69 70/70/70
f 119/119/119 69/69/69 121/121/121
f 122/122/122 119/119/119 121/121/121
f 120/120/120 119/119/119 122/122/122
f 90/90/90 120/120/120 122/122/122
f 93/93/93 120/120/120 90/90/90
f 63/63/63 123/123/123 68/68/68
f 63/63/63 124/124/124 123/123/123
f 124/124/124 125/125/125 123/123/123
f 124/124/124 126/126/126 125/125/125
f 126/126/126 89/89/89 125/125/125
f 126/126/126 92/92/92 89/89/89
f 63/63/63 127/127/127 124/124/124
f 62/62/62 127/127/127 63/63/63
f 124/124/124 128/128/128 126/126/126
f 127/127/127 128/128/128 124/124/124
f 126/126/126 64/64/64 66/66/66
f 128/128/128 64/64/64 126/126/126
f 58/58/58 129/129/129 127/127/127
f 57/57/57 129/129/129 58/58/58
f 127/127/127 130/130/130 128/128/128
f 129/129/129 130/130/130 127/127/127
f 128/128/128 30/30/30 32/32/32
f 130/130/130 30/30/30 128/128/128
f 21/21/21 107/107/107 117/117/117
f 23/23/23 107/107/107 21/21/21
f 117/117/117 106/106/106 115/115/115
f 107/107/107 106/106/106 117/117/117
f 115/115/115 95/95/95 96/96/96
f 106/106/106 95/95/95 115/115/115
f 131/131/131 70/70/70 2/2/2
f 131/131/131 121/121/121 70/70/70
f 132/132/132 121/121/121 131/131/131
f 132/132/132 122/122/122 121/121/121
f 91/91/91 122/122/122 132/132/132
f 91/91/91 90/90/90 122/122/122
f 29/29/29 129/129/129 27/27/27
f 29/29/29 114/114/114 129/129/129
f 114/114/114 130/130/130 129/129/129
f 114/114/114 113/113/113 130/130/130
f 113/113/113 22/22/22 130/130/130
f 113/113/113 19/19/19 22/22/22
f 4/4/4 131/131/131 2/2/2
f 123/123/123 131/131/131 4/4/4
f 123/123/123 132/132/132 131/131/131
f 125/125/125 132/132/132 123/123/123
f 125/125/125 91/91/91 132/132/132
f 89/89/89 91/91/91 125/125/125
f 101/101/101 77/77/77 94/94/94
f 76/76/76 77/77/77 101/101/101
f 133/133/133 86/86/86 85/85/85
f 133/133/133 134/134/134 86/86/86
f 75/75/75 135/135/135 71/71/71
f 136/136/136 135/135/135 75/75/75
f 17/17/17 104/104/104 105/105/105
f 109/109/109 104/104/104 17/17/17
f 137/137/137 135/135/135 136/136/136
f 137/137/137 8/8/8 135/135/135
f 133/133/133 137/137/137 134/134/134
f 8/8/8 137/137/137 133/133/133

